<mxfile host="app.diagrams.net" modified="2024-01-04T08:58:51.161Z" agent="Mozilla/5.0 (Windows NT 10.0; Win64; x64) AppleWebKit/537.36 (KHTML, like Gecko) Chrome/120.0.0.0 Safari/537.36" version="22.1.16" etag="H73khVI0t2rYM8qZeUjJ" type="github">
  <diagram name="페이지-1" id="VpFutrYBXAX4n4MylmDC">
    <mxGraphModel>
      <root>
        <mxCell id="0" />
        <mxCell id="1" parent="0" />
      </root>
    </mxGraphModel>
  </diagram>
</mxfile>
